# xmcd
#
# Track frame offsets: 
#        150
#        14095
#        38825
#        61025
#        83545
#        117440
#        143382
#        163992
#        194277
#        223935
#        285240
#        301262
#        328542
#
# Disc length: 4625 seconds
#
# Revision: 3
# Processed by: cddbd v1.5.2PL0 Copyright (c) Steve Scherf et al.
# Submitted via: ExactAudioCopy v0.99pb5
#
DISCID=af120f0d
DTITLE=Moore Gary - Dark days in Paradise
DYEAR=1997
DGENRE=Blues
TTITLE0=One Good Reason
TTITLE1=Cold Wind Blows
TTITLE2=I Have Found My Love In You
TTITLE3=One Fine Day
TTITLE4=Like Angels
TTITLE5=What Are We Here For
TTITLE6=Always There For You
TTITLE7=Afraid Of Tomorrow
TTITLE8=Where Did We Go Wrong
TTITLE9=Business As Usual
TTITLE10=Dark Days In Paradise
TTITLE11=Burning in Our Hearts
TTITLE12=There Must Be A Way
EXTD=YEAR: 1997 ID3G: 0
EXTT0=
EXTT1=
EXTT2=
EXTT3=
EXTT4=
EXTT5=
EXTT6=
EXTT7=
EXTT8=
EXTT9=
EXTT10=
EXTT11=
EXTT12=
PLAYORDER=
